<svg width="40" height="40" viewBox="0 0 40 40" fill="none" xmlns="http://www.w3.org/2000/svg">
<g clip-path="url(#clip0_974_1097)">
<path d="M23.9381 26.6333C22.9515 27.68 21.5531 28.3333 20.0015 28.3333C18.4498 28.3333 17.0515 27.68 16.0648 26.6333C15.4865 26.02 15.9665 25 16.8098 25H23.1948C24.0381 25 24.5198 26.02 23.9398 26.6333H23.9381ZM34.5531 24.9867C33.7581 26.72 32.5598 28.4267 31.0831 29.93C33.1598 32.2133 34.4631 35.0283 34.8515 38.1267C34.9648 39.04 34.3181 39.8733 33.4048 39.9867C32.5081 40.1033 31.6548 39.4567 31.5448 38.54C31.2381 36.095 30.1831 33.89 28.5315 32.1033C26.0481 33.8567 23.1048 35.0017 19.9998 35.0017C16.8948 35.0017 13.9348 33.8483 11.4465 32.0883C9.78646 33.8767 8.72813 36.0867 8.4198 38.54C8.30813 39.4583 7.4548 40.1033 6.55813 39.9867C5.6448 39.8717 4.99647 39.0383 5.11313 38.125C5.50313 35.0167 6.8148 32.1967 8.8998 29.9117C7.43147 28.4117 6.2398 26.7133 5.44813 24.9867C2.41313 24.7867 0.00146484 22.2533 0.00146484 19.1667C0.00146484 16.7767 1.4498 14.68 3.58313 13.79C4.95647 5.85333 11.8265 0 19.9998 0C28.1731 0 35.0448 5.85333 36.4181 13.79C38.5498 14.68 39.9998 16.7767 39.9998 19.1667C39.9998 22.2533 37.5898 24.7883 34.5531 24.9867ZM34.1665 21.6667C35.5448 21.6667 36.6665 20.545 36.6665 19.1667C36.6665 17.9617 35.8031 16.93 34.6165 16.715C33.8865 16.5817 33.3331 15.985 33.2581 15.25C32.5415 8.45667 26.8415 3.33333 20.0015 3.33333C18.1631 3.33333 16.6681 4.82833 16.6681 6.66667C16.6681 8.505 18.1631 10 20.0015 10C21.4115 10 22.6748 9.10667 23.1465 7.77833C23.4531 6.91167 24.4098 6.45333 25.2715 6.76333C26.1398 7.07 26.5948 8.02333 26.2865 8.89C25.3481 11.5483 22.8198 13.335 20.0015 13.335C16.3248 13.335 13.3348 10.345 13.3348 6.66833C13.3348 6.085 13.4348 5.52833 13.5748 4.98833C9.86646 7.025 7.21813 10.7683 6.7448 15.25C6.66813 15.985 6.11313 16.5817 5.38647 16.715C4.19813 16.93 3.33647 17.9633 3.33647 19.1667C3.33647 20.545 4.45813 21.6667 5.83646 21.6667C6.7548 21.4633 7.78813 21.7283 8.11813 22.7067C9.6448 27.035 14.7865 31.6683 20.0031 31.6683C25.2198 31.6683 30.3615 27.035 31.8881 22.7067C32.2215 21.7267 33.2515 21.4633 34.1698 21.6667H34.1665ZM18.3331 19.1667C18.3331 17.7867 17.2131 16.6667 15.8331 16.6667C14.4531 16.6667 13.3331 17.7867 13.3331 19.1667C13.3331 20.5467 14.4531 21.6667 15.8331 21.6667C17.2131 21.6667 18.3331 20.5467 18.3331 19.1667ZM24.1665 16.6667C22.7865 16.6667 21.6665 17.7867 21.6665 19.1667C21.6665 20.5467 22.7865 21.6667 24.1665 21.6667C25.5465 21.6667 26.6665 20.5467 26.6665 19.1667C26.6665 17.7867 25.5465 16.6667 24.1665 16.6667Z" fill="#272625"/>
</g>
<defs>
<clipPath id="clip0_974_1097">
<rect width="40" height="40" fill="white"/>
</clipPath>
</defs>
</svg>
