<svg width="46" height="46" viewBox="0 0 46 46" fill="none" xmlns="http://www.w3.org/2000/svg">
<rect width="46" height="46" rx="23" fill="#89BC8B" fill-opacity="0.1"/>
<path d="M29 29.5014C29 32.5314 26.53 35.0014 23.5 35.0014H16.5C13.47 35.0014 11 32.5314 11 29.5014V22.5014C11 19.4714 13.47 17.0014 16.5 17.0014C17.33 17.0014 18 17.6714 18 18.5014C18 19.3314 17.33 20.0014 16.5 20.0014C15.12 20.0014 14 21.1214 14 22.5014V29.5014C14 30.8814 15.12 32.0014 16.5 32.0014H23.5C24.88 32.0014 26 30.8814 26 29.5014C26 28.6714 26.67 28.0014 27.5 28.0014C28.33 28.0014 29 28.6714 29 29.5014ZM34 16.0514L29.58 11.4614C29 10.8614 28.06 10.8414 27.46 11.4214C26.86 12.0014 26.84 12.9414 27.42 13.5414L30.75 17.0014H24.5C21.47 17.0014 19 19.4714 19 22.5014V27.5014C19 28.3314 19.67 29.0014 20.5 29.0014C21.33 29.0014 22 28.3314 22 27.5014V22.5014C22 21.1214 23.12 20.0014 24.5 20.0014H30.75L27.42 23.4614C26.85 24.0614 26.86 25.0114 27.46 25.5814C27.75 25.8614 28.13 26.0014 28.5 26.0014C28.89 26.0014 29.29 25.8514 29.58 25.5414L33.97 20.9814C35.34 19.6214 35.34 17.3914 33.99 16.0514H34Z" fill="#89BC8B"/>
</svg>
