<svg width="40" height="40" viewBox="0 0 40 40" fill="none" xmlns="http://www.w3.org/2000/svg">
<path d="M31.6667 0H16.6667C12.0717 0 8.33333 3.73833 8.33333 8.33333V10H7.5C3.365 10 0 13.365 0 17.5V34.1667C0 37.3817 2.615 39.9983 5.83167 40H31.6667C36.2617 40 40 36.2617 40 31.6667V8.33333C40 3.73833 36.2617 0 31.6667 0ZM8.33333 34.1667C8.33333 35.545 7.21167 36.6667 5.83333 36.6667C4.455 36.6667 3.33333 35.545 3.33333 34.1667V17.5C3.33333 15.2033 5.20333 13.3333 7.5 13.3333H8.33333V34.1667ZM36.6667 31.6667C36.6667 34.4233 34.4233 36.6667 31.6667 36.6667H11.1033C11.4633 35.9083 11.6667 35.0617 11.6667 34.1667V8.33333C11.6667 5.57667 13.91 3.33333 16.6667 3.33333H31.6667C34.4233 3.33333 36.6667 5.57667 36.6667 8.33333V31.6667ZM33.3333 11.6667C33.3333 12.5867 32.5867 13.3333 31.6667 13.3333H26.6667C25.7467 13.3333 25 12.5867 25 11.6667C25 10.7467 25.7467 10 26.6667 10H31.6667C32.5867 10 33.3333 10.7467 33.3333 11.6667ZM33.3333 18.3333C33.3333 19.2533 32.5867 20 31.6667 20H16.6667C15.7467 20 15 19.2533 15 18.3333C15 17.4133 15.7467 16.6667 16.6667 16.6667H31.6667C32.5867 16.6667 33.3333 17.4133 33.3333 18.3333ZM33.3333 25C33.3333 25.92 32.5867 26.6667 31.6667 26.6667H16.6667C15.7467 26.6667 15 25.92 15 25C15 24.08 15.7467 23.3333 16.6667 23.3333H31.6667C32.5867 23.3333 33.3333 24.08 33.3333 25ZM33.3333 31.6667C33.3333 32.5867 32.5867 33.3333 31.6667 33.3333H16.6667C15.7467 33.3333 15 32.5867 15 31.6667C15 30.7467 15.7467 30 16.6667 30H31.6667C32.5867 30 33.3333 30.7467 33.3333 31.6667ZM15 11.6667V8.33333C15 7.41333 15.7467 6.66667 16.6667 6.66667H20C20.92 6.66667 21.6667 7.41333 21.6667 8.33333V11.6667C21.6667 12.5867 20.92 13.3333 20 13.3333H16.6667C15.7467 13.3333 15 12.5867 15 11.6667Z" fill="#272625"/>
</svg>
