<svg width="40" height="40" viewBox="0 0 40 40" fill="none" xmlns="http://www.w3.org/2000/svg">
<g clip-path="url(#clip0_974_1091)">
<path d="M22.23 1.38832C21.6179 0.837384 20.8235 0.532532 20 0.532532C19.1765 0.532532 18.3821 0.837384 17.77 1.38832L0 17.3817V34.715C0 36.1295 0.561903 37.486 1.5621 38.4862C2.56229 39.4864 3.91885 40.0483 5.33333 40.0483H34.6667C36.0812 40.0483 37.4377 39.4864 38.4379 38.4862C39.4381 37.486 40 36.1295 40 34.715V17.3817L22.23 1.38832ZM25 36.71H15V28.3333C15 27.0072 15.5268 25.7355 16.4645 24.7978C17.4021 23.8601 18.6739 23.3333 20 23.3333C21.3261 23.3333 22.5979 23.8601 23.5355 24.7978C24.4732 25.7355 25 27.0072 25 28.3333V36.71ZM36.6667 34.71C36.6667 35.2404 36.456 35.7491 36.0809 36.1242C35.7058 36.4993 35.1971 36.71 34.6667 36.71H28.3333V28.3333C28.3333 26.1232 27.4554 24.0036 25.8926 22.4408C24.3298 20.878 22.2101 20 20 20C17.7899 20 15.6702 20.878 14.1074 22.4408C12.5446 24.0036 11.6667 26.1232 11.6667 28.3333V36.71H5.33333C4.8029 36.71 4.29419 36.4993 3.91912 36.1242C3.54405 35.7491 3.33333 35.2404 3.33333 34.71V18.865L20 3.86499L36.6667 18.865V34.71Z" fill="#272625"/>
</g>
<defs>
<clipPath id="clip0_974_1091">
<rect width="40" height="40" fill="white"/>
</clipPath>
</defs>
</svg>
