<svg width="40" height="40" viewBox="0 0 40 40" fill="none" xmlns="http://www.w3.org/2000/svg">
<path d="M17.6668 21.1833C17.5105 21.0284 17.3866 20.844 17.3019 20.641C17.2173 20.4379 17.1738 20.22 17.1738 20C17.1738 19.78 17.2173 19.5621 17.3019 19.359C17.3866 19.1559 17.5105 18.9716 17.6668 18.8167L25.3168 11.1833C25.473 11.0284 25.597 10.844 25.6816 10.6409C25.7662 10.4379 25.8098 10.22 25.8098 9.99999C25.8098 9.77997 25.7662 9.56213 25.6816 9.35903C25.597 9.15593 25.473 8.97159 25.3168 8.81665C25.0045 8.50624 24.5821 8.332 24.1418 8.332C23.7014 8.332 23.279 8.50624 22.9668 8.81665L15.3168 16.4667C14.3804 17.4042 13.8545 18.675 13.8545 20C13.8545 21.325 14.3804 22.5958 15.3168 23.5333L22.9668 31.1833C23.2772 31.4912 23.6962 31.6648 24.1334 31.6667C24.3528 31.6679 24.5702 31.6259 24.7733 31.5429C24.9763 31.46 25.161 31.3378 25.3168 31.1833C25.473 31.0284 25.597 30.844 25.6816 30.641C25.7662 30.4379 25.8098 30.22 25.8098 30C25.8098 29.78 25.7662 29.5621 25.6816 29.359C25.597 29.1559 25.473 28.9716 25.3168 28.8167L17.6668 21.1833Z" fill="#272625"/>
</svg>
